{
	"asset":{
		"generator":"Khronos glTF Blender I/O v3.6.27",
		"version":"2.0"
	},
	"extensionsUsed":[
		"KHR_materials_specular",
		"KHR_materials_ior"
	],
	"scene":0,
	"scenes":[
		{
			"name":"Scene",
			"nodes":[
				0
			]
		}
	],
	"nodes":[
		{
			"mesh":0,
			"name":"SCOOF_sitting"
		}
	],
	"materials":[
		{
			"doubleSided":true,
			"extensions":{
				"KHR_materials_specular":{
					"specularColorFactor":[
						0.8191962629521939,
						0.8191962629521939,
						0.8191962629521939
					]
				},
				"KHR_materials_ior":{
					"ior":1.4500000476837158
				}
			},
			"name":"Material.001",
			"pbrMetallicRoughness":{
				"baseColorTexture":{
					"index":0
				},
				"metallicFactor":0.24090908467769623,
				"roughnessFactor":0.7000000476837158
			}
		}
	],
	"meshes":[
		{
			"name":"Mesh.002",
			"primitives":[
				{
					"attributes":{
						"POSITION":0,
						"NORMAL":1,
						"TEXCOORD_0":2,
						"TEXCOORD_1":3
					},
					"indices":4,
					"material":0
				}
			]
		}
	],
	"textures":[
		{
			"sampler":0,
			"source":0
		}
	],
	"images":[
		{
			"mimeType":"image/jpeg",
			"name":"scoof_color",
			"uri":"textures/scoof_color.jpg"
		}
	],
	"accessors":[
		{
			"bufferView":0,
			"componentType":5126,
			"count":5469,
			"max":[
				0.4280361533164978,
				1.2193374633789062,
				0.5549373030662537
			],
			"min":[
				-0.4280361533164978,
				-0.001202225685119629,
				-0.43768346309661865
			],
			"type":"VEC3"
		},
		{
			"bufferView":1,
			"componentType":5126,
			"count":5469,
			"type":"VEC3"
		},
		{
			"bufferView":2,
			"componentType":5126,
			"count":5469,
			"type":"VEC2"
		},
		{
			"bufferView":3,
			"componentType":5126,
			"count":5469,
			"type":"VEC2"
		},
		{
			"bufferView":4,
			"componentType":5123,
			"count":20754,
			"type":"SCALAR"
		}
	],
	"bufferViews":[
		{
			"buffer":0,
			"byteLength":65628,
			"byteOffset":0,
			"target":34962
		},
		{
			"buffer":0,
			"byteLength":65628,
			"byteOffset":65628,
			"target":34962
		},
		{
			"buffer":0,
			"byteLength":43752,
			"byteOffset":131256,
			"target":34962
		},
		{
			"buffer":0,
			"byteLength":43752,
			"byteOffset":175008,
			"target":34962
		},
		{
			"buffer":0,
			"byteLength":41508,
			"byteOffset":218760,
			"target":34963
		}
	],
	"samplers":[
		{
			"magFilter":9729,
			"minFilter":9987
		}
	],
	"buffers":[
		{
			"byteLength":260268,
			"uri":"scene.bin"
		}
	]
}
